<?xml version="1.0" encoding="utf-8"?>
<!-- Generator: Adobe Illustrator 27.5.0, SVG Export Plug-In . SVG Version: 6.00 Build 0)  -->
<svg version="1.1" xmlns="http://www.w3.org/2000/svg" xmlns:xlink="http://www.w3.org/1999/xlink" x="0px" y="0px"
	 viewBox="0 0 500 500" style="enable-background:new 0 0 500 500;" xml:space="preserve">
<g id="Table">
	
		<line style="fill:none;stroke:#263238;stroke-width:2.5;stroke-linecap:round;stroke-linejoin:round;stroke-miterlimit:10;" x1="57.888" y1="440.628" x2="442.112" y2="440.628"/>
</g>
<g id="Clock">
	<g>
		<g>
			
				<ellipse transform="matrix(0.0275 -0.9996 0.9996 0.0275 282.3343 484.0071)" style="fill:#9ABAE3;stroke:#263238;stroke-width:2.5;stroke-linecap:round;stroke-linejoin:round;stroke-miterlimit:10;" cx="389.916" cy="96.902" rx="53.312" ry="53.312"/>
			
				<ellipse transform="matrix(0.9864 -0.1646 0.1646 0.9864 -10.6314 65.4968)" style="fill:#FFFFFF;stroke:#263238;stroke-width:2.5;stroke-linecap:round;stroke-linejoin:round;stroke-miterlimit:10;" cx="389.916" cy="96.902" rx="42.666" ry="42.666"/>
			
				<polyline style="fill:none;stroke:#263238;stroke-width:2.5;stroke-linecap:round;stroke-linejoin:round;stroke-miterlimit:10;" points="
				389.916,71.107 389.916,96.902 403.132,86.59 			"/>
		</g>
	</g>
</g>
<g id="Character">
	<g>
		<g>
			<path style="fill:#EC644E;" d="M271.414,222.741c-2.285,49.367,78.129,188.508,117.349,194.704
				c42.125,6.654,60.482-43.07,53.317-67.684c-7.946-27.298-57.932-150.207-97.977-173.803
				c-19.759-11.643-38.883-5.735-60.656-8.374C269.284,165.867,272.004,210.011,271.414,222.741z"/>
			<path style="fill:#FFFFFF;" d="M388.762,417.439c-1.192-0.189-2.424-0.497-3.684-0.925c33.488-3.538,47.654-45.94,41.224-68.048
				c-7.943-27.297-57.937-150.201-97.979-173.807c-6.915-4.073-14.931-4.779-21.622-5.886c12.214,0.34,25.096-0.075,37.408,7.181
				c40.042,23.606,90.024,146.509,97.967,173.806C449.251,374.37,430.891,424.102,388.762,417.439z"/>
			<path style="fill:none;stroke:#263238;stroke-width:2.5;stroke-linecap:round;stroke-linejoin:round;stroke-miterlimit:10;" d="
				M271.414,222.741c-2.285,49.367,78.129,188.508,117.349,194.704c42.125,6.654,60.482-43.07,53.317-67.684
				c-7.946-27.298-57.932-150.207-97.977-173.803c-19.759-11.643-38.883-5.735-60.656-8.374
				C269.284,165.867,272.004,210.011,271.414,222.741z"/>
		</g>
		<g>
			<path style="fill:#EC644E;" d="M389.91,440.489l-297.139-0.004c-3.618-15.829,20.518-112.649,19.522-142.577
				c-1.035-29.912,6.574-99.675,37.159-120.409c30.34-20.577,65.584-11.336,92.731-12.905c11.24-0.653,27.74,4.685,41.981,8.558
				c59.639,16.219,85.111,134.813,90.819,150.189C380.665,338.613,390.189,425.413,389.91,440.489z"/>
			<path style="fill:none;stroke:#263238;stroke-width:2.5;stroke-linecap:round;stroke-linejoin:round;stroke-miterlimit:10;" d="
				M340.526,216.87c23.388,41.487,30.785,96.585,34.455,106.471c5.683,15.272,15.208,102.072,14.928,117.148l-297.139-0.004
				c-3.618-15.829,20.518-112.649,19.522-142.577c-1.035-29.912,6.574-99.675,37.159-120.409
				c30.34-20.577,65.584-11.336,92.731-12.905c7.458-0.433,19.582-0.14,31.056,1.238"/>
			
				<path style="fill:#FFFFFF;stroke:#263238;stroke-width:2.5;stroke-linecap:round;stroke-linejoin:round;stroke-miterlimit:10;" d="
				M205.814,163.846c0,0,20.28,180.626,23.7,276.64h77.134c0,0,4.129-189.251-33.139-275.174c0,0-17.471-0.674-35.005-0.35
				C229.828,165.122,214.364,163.431,205.814,163.846z"/>
			<path style="fill:none;stroke:#263238;stroke-width:2.5;stroke-linecap:round;stroke-linejoin:round;stroke-miterlimit:10;" d="
				M283.06,173.412c0,0,36.032,64.527,38.784,78.747c2.752,14.22-17.545,86.984-17.545,86.984"/>
			<path style="fill:none;stroke:#263238;stroke-width:2.5;stroke-linecap:round;stroke-linejoin:round;stroke-miterlimit:10;" d="
				M293.781,296.516c0,0-11.991,26.924-44.829,36.749"/>
			<path style="fill:none;stroke:#263238;stroke-width:2.5;stroke-linecap:round;stroke-linejoin:round;stroke-miterlimit:10;" d="
				M281.044,296.516c0,0-5.792,12.015-19.355,20.518"/>
		</g>
		
			<path style="fill:#EC644E;stroke:#263238;stroke-width:2.5;stroke-linecap:round;stroke-linejoin:round;stroke-miterlimit:10;" d="
			M162.005,301.326c-28.356,47.545-28.283,60.104-47.651,70.806c-33.473,18.497-73.198-19.826-60.114-54.715
			c8.785-23.425,38.304-97.734,70.928-125.694c15.916-13.641,34.891-25.06,85.194-18.192"/>
		<g>
			<g>
				<path style="fill:#263238;" d="M220.77,158.07c1.655,4.346-0.526,9.21-4.871,10.866c-4.346,1.655-9.21-0.526-10.866-4.871
					c-1.655-4.346,0.526-9.21,4.871-10.866C214.25,151.544,219.115,153.725,220.77,158.07z"/>
				<path style="fill:#263238;" d="M281.582,114.459c1.655,4.346-0.526,9.21-4.871,10.866c-4.346,1.655-9.21-0.526-10.866-4.871
					c-1.655-4.346,0.526-9.21,4.871-10.866C275.062,107.933,279.926,110.114,281.582,114.459z"/>
				<path style="fill:#263238;" d="M225.807,165.162c1.413,3.709-0.449,7.861-4.158,9.274c-3.709,1.413-7.861-0.449-9.274-4.158
					c-1.413-3.709,0.449-7.861,4.158-9.274C220.242,159.591,224.395,161.452,225.807,165.162z"/>
				<path style="fill:#263238;" d="M283.749,125.034c1.413,3.709-0.449,7.862-4.158,9.274c-3.709,1.413-7.862-0.449-9.274-4.158
					c-1.413-3.709,0.449-7.862,4.158-9.274C278.184,119.463,282.336,121.325,283.749,125.034z"/>
			</g>
			<path style="fill:none;stroke:#263238;stroke-width:2.5;stroke-linecap:round;stroke-linejoin:round;stroke-miterlimit:10;" d="
				M216.945,168.125c0,0,17.509,41.995,39.053,38.629c15.62-2.441,7.259-33.701,7.259-33.701"/>
			<path style="fill:#263238;" d="M256.417,180.267c0,0,4.864,18.587-4.325,17.461c-14.41-1.767-25.485-29.574-25.485-29.574
				L256.417,180.267z"/>
			<g>
				<g>
					<g>
						<path style="fill:#FCD8C3;" d="M209.332,154.388c-8.615-23.307,0.178-48.132,19.64-55.447
							c19.462-7.316,42.224,5.648,50.839,28.956c8.615,23.307-0.178,48.132-19.64,55.447
							C240.709,190.66,217.948,177.696,209.332,154.388z"/>
						<path style="fill:#FFFFFF;" d="M260.169,183.346c-5.432,2.037-11.137,2.502-16.704,1.579c2.73-0.227,5.43-0.827,8.084-1.814
							c18.444-6.944,26.779-30.472,18.617-52.576c-8.177-22.103-29.754-34.384-48.199-27.454c-0.463,0.18-0.94,0.36-1.387,0.569
							c2.509-1.96,5.32-3.558,8.394-4.709c19.456-7.308,42.221,5.653,50.837,28.96C288.429,151.207,279.639,176.023,260.169,183.346
							z"/>
						
							<path style="fill:none;stroke:#263238;stroke-width:2.5;stroke-linecap:round;stroke-linejoin:round;stroke-miterlimit:10;" d="
							M209.332,154.388c-8.615-23.307,0.178-48.132,19.64-55.447c19.462-7.316,42.224,5.648,50.839,28.956
							c8.615,23.307-0.178,48.132-19.64,55.447C240.709,190.66,217.948,177.696,209.332,154.388z"/>
					</g>
				</g>
				<g>
					<g>
						<path style="fill:#263238;" d="M211.367,158.872c0,0,13.285-4.327,13.272-21.069c0,0,25.831-6.561,21.613-26.738
							c0,0,13.415,10.177,24.934-0.245c0,0-29.166-28.59-53.828-4.211C192.696,130.988,211.367,158.872,211.367,158.872z"/>
					</g>
					<g>
						
							<path style="fill:#EC644E;stroke:#263238;stroke-width:2.5;stroke-linecap:round;stroke-linejoin:round;stroke-miterlimit:10;" d="
							M200.603,136.245c0,0-8.181,3.69-12.166-0.411c-3.986-4.101,1.773-18.274,5.472-26.825c3.699-8.552,16.674-17.007,27.3-20.205
							c10.626-3.198,22.344-2.755,27.851,2.588C249.059,91.391,207.685,113.811,200.603,136.245z"/>
						
							<path style="fill:#EC644E;stroke:#263238;stroke-width:2.5;stroke-linecap:round;stroke-linejoin:round;stroke-miterlimit:10;" d="
							M208.002,155.072c0,0-7.733-3.529-10.48-8.796c-2.747-5.267,0.153-13.06,1.393-17.996c1.24-4.936,3.112-17.71,17.025-29.19
							c13.913-11.48,32.477-9.399,38.18-8.427c5.703,0.972,19.019,14.27,16.716,18.843c0,0-28.11-11.606-43.457,1.638
							C212.032,124.391,208.002,155.072,208.002,155.072z"/>
					</g>
				</g>
			</g>
			<g>
				<path style="fill:#263238;" d="M267.225,159.191l-1.717-6.551c0,0-5.234-1.911-10.182,2.115
					c-4.182,3.402-7.338,7.747-10.526,9.028c-7.868,3.162-15.483-3.066-11.67,1.855c3.812,4.921,14.135,7.818,22.015,5.008
					C264.419,167.339,267.225,159.191,267.225,159.191z"/>
				<path style="fill:#263238;" d="M267.225,159.191l-1.712-6.529c0,0,2.18-3.565,6.488-2.206c3.64,1.149,7.154,3.841,9.342,3.267
					c2.188-0.573,1.768-3.468,0.552-4.229c-1.216-0.761-1.926,0.797-1.1,1.749c0,0-2.063-0.193-2.389-2.712
					c-0.417-3.222,1.791-4.494,3.835-3.795c2.153,0.737,4.737,3.385,4.508,8.843c-0.229,5.458-3.054,8.936-8.526,9.692
					C271.78,164.162,267.225,159.191,267.225,159.191z"/>
			</g>
		</g>
		<path style="fill:none;stroke:#263238;stroke-width:2.5;stroke-linecap:round;stroke-linejoin:round;stroke-miterlimit:10;" d="
			M205.814,163.846c0,0-20.419,85.015-17.607,94.082c2.811,9.067,35.26,87.533,35.26,87.533"/>
		<g>
			<g>
				
					<path style="fill:#FCD8C3;stroke:#263238;stroke-width:2.5;stroke-linecap:round;stroke-linejoin:round;stroke-miterlimit:10;" d="
					M146.516,232.469l56.795,26.807l10.846-13.721c0,0,10.201-5.232,12.218-24.342c2.017-19.109,1.5-29.867,1.5-29.867
					s14.208-20.279,10.307-23.476c-3.901-3.197-15.291,1.546-20.294,8.177c-5.003,6.63-7.034,14.11-7.858,14.585
					c-0.825,0.475-6.402-3.47-7.484-6.235c-1.082-2.766,3.177-9.677,6.291-12.067s10.204,1.304,19.369-3.955
					c7.893-4.529,3.503-8.804-3.847-10.325s-17.226-2.747-23.341-1.269c-6.115,1.478-14.26,14.519-14.26,14.519
					s-3.781-12.325-3.903-20.258c-0.072-4.653,4.214-10.439,5.487-17.761c1.273-7.321-0.746-13.409-4.84-12.925
					s-12.571,13.635-15.618,19.782c-3.047,6.147-3.661,15.715-3.589,25.897c0.072,10.182-8.135,52.328-8.39,53.365
					C155.647,220.436,146.516,232.469,146.516,232.469z"/>
				
					<path style="fill:#FCD8C3;stroke:#263238;stroke-width:2.5;stroke-linecap:round;stroke-linejoin:round;stroke-miterlimit:10;" d="
					M168.218,188.266c0,0-16.863-21.26-17.883-23.351c-1.02-2.091-7.969-25.496-2.719-30.882
					c6.845-7.023,15.704,22.968,16.821,24.647c1.117,1.679,13.426,14.824,13.426,14.824"/>
				
					<path style="fill:#FCD8C3;stroke:#263238;stroke-width:2.5;stroke-linecap:round;stroke-linejoin:round;stroke-miterlimit:10;" d="
					M160.483,200.329c0,0-12.416-14.536-13.697-16.303c-1.281-1.766-9.45-21.308-5.391-27.31
					c4.059-6.002,17.15,15.426,18.473,16.799c1.323,1.373,16.348,10.379,16.348,10.379"/>
				
					<path style="fill:#FCD8C3;stroke:#263238;stroke-width:2.5;stroke-linecap:round;stroke-linejoin:round;stroke-miterlimit:10;" d="
					M187.088,198.755c0,0,20.152,12.965,22.177,30.087"/>
			</g>
			<g>
				
					<path style="fill:#EC644E;stroke:#263238;stroke-width:2.5;stroke-linecap:round;stroke-linejoin:round;stroke-miterlimit:10;" d="
					M64.941,362.927c26.509,32.371,83.425,16.268,96.828-4.558c23.32-36.235,69.611-93.84,61.994-107.369
					c0,0,2.437,5.206-14.518,5.262c-29.055,0.096-38.667-36.289-68.971-38.249c0,0-35.778,43.406-59.825,92.067"/>
				<path style="fill:#263238;" d="M225.002,250.116c-0.715-4.132-13.355-3.464-13.355-3.464l-9.976,9.183
					C201.671,255.834,226.625,259.49,225.002,250.116z"/>
			</g>
		</g>
		<g>
			<g>
				
					<path style="fill:#FFFFFF;stroke:#263238;stroke-width:2.5;stroke-linecap:round;stroke-linejoin:round;stroke-miterlimit:10;" d="
					M238.817,393.242c-2.47-3.787-7.121-4.98-11.648-5.186c-2.716-0.124-5.392,0.103-7.594,0.329
					c1.173-7.367,1.811-12.574,1.811-12.574H115.793c0,0,3.211,25.848,8.396,44.02c4.013,14.077,10.434,27.844,24.387,30.705
					c5.145,1.07,12.265,0.782,20.003,0.782c7.758,0,14.879,0.288,20.003-0.782c8.396-1.729,14.076-7.388,18.11-14.694
					c1.194,0.617,2.367,1.132,3.56,1.502c8.726,2.881,17.184-0.247,22.391-5.577C240.196,424.009,246.144,404.417,238.817,393.242z
					 M226.202,426.046c-1.296,1.358-7.655,7.141-16.031,2.325c1.07-2.778,1.996-5.639,2.82-8.54
					c2.037-7.141,3.766-15.476,5.124-22.946c0.432-0.041,0.906-0.103,1.482-0.165c1.502-0.185,2.799-0.268,3.972-0.35
					c6.236-0.35,7.676,0.597,7.964,1.091C236.039,404.294,232.252,419.852,226.202,426.046z"/>
			</g>
			<g>
				
					<path style="fill:#FCD8C3;stroke:#263238;stroke-width:2.5;stroke-linecap:round;stroke-linejoin:round;stroke-miterlimit:10;" d="
					M204.577,395.706c2.013,8.601,10.614,5.188,12.942,6.606c0,0-2.82,6.919-0.354,13.396c2.986,7.843,8.829,8.445,8.829,8.445
					c-0.497,10.256,11.781,16.826,18.979,15.833c5.401-0.745,16.494-5.736,16.494-5.736c23.964,1.964,31.519-4.573,31.519-4.573
					l35.192-10.623c0,0-2.311-42.097-11.734-66.495c0,0-41.605-1.156-73.831,6.928C235.337,361.314,201.669,383.287,204.577,395.706
					z"/>
				<path style="fill:none;stroke:#263238;stroke-width:2.5;stroke-linecap:round;stroke-linejoin:round;stroke-miterlimit:10;" d="
					M227.183,424.569c6.759-6.048,22.054-12.919,22.054-12.919"/>
				<path style="fill:none;stroke:#263238;stroke-width:2.5;stroke-linecap:round;stroke-linejoin:round;stroke-miterlimit:10;" d="
					M217.519,402.313c6.072-5.492,20.764-12.389,20.764-12.389"/>
			</g>
			<g>
				<g>
					<path style="fill:#EC644E;" d="M441.42,346.879c14.313,35.41,9.102,79.936-42.066,88.147
						c-43.246,6.94-97.157,17.546-107.165,5.345c-3.796-4.628,4.368,4.175,9.266-5.36c17.138-33.363-13.726-63.318-6.715-89.733
						c0,0,57.055-15.74,102.266-13.422"/>
				</g>
				<g>
					<path style="fill:#FFFFFF;" d="M408.466,433.091c29.481-17.184,30.455-58.027,15.308-92.165l17.645,5.954
						C452.78,376.087,451.125,421.623,408.466,433.091z"/>
				</g>
				<g>
					
						<path style="fill:none;stroke:#263238;stroke-width:2.5;stroke-linecap:round;stroke-linejoin:round;stroke-miterlimit:10;" d="
						M440.844,345.407c15.005,41.017,9.678,81.408-41.491,89.619c-43.246,6.94-97.157,17.546-107.165,5.345
						c-3.796-4.628,4.368,4.175,9.266-5.36c17.138-33.363-13.726-63.318-6.715-89.733c0,0,57.055-15.74,102.266-13.422"/>
				</g>
				<path style="fill:#263238;" d="M293.509,441.727c4.213,0.647,11.742-16.527,11.742-16.527l-15.111,6.818
					C290.141,432.018,287.662,440.829,293.509,441.727z"/>
			</g>
		</g>
	</g>
</g>
</svg>
