<?xml version="1.0" encoding="utf-8"?>
<!-- Generator: Adobe Illustrator 27.5.0, SVG Export Plug-In . SVG Version: 6.00 Build 0)  -->
<svg version="1.1" xmlns="http://www.w3.org/2000/svg" xmlns:xlink="http://www.w3.org/1999/xlink" x="0px" y="0px"
	 viewBox="0 0 500 500" style="enable-background:new 0 0 500 500;" xml:space="preserve">
<g id="Floor">
	
		<line style="fill:none;stroke:#263238;stroke-width:2.5;stroke-linecap:round;stroke-linejoin:round;stroke-miterlimit:10;" x1="31.393" y1="467.564" x2="468.607" y2="467.564"/>
</g>
<g id="Window">
	<g>
		<g>
			
				<rect x="-4.14" y="104.823" transform="matrix(-1.836970e-16 1 -1 -1.836970e-16 275.6686 41.7112)" style="fill:none;stroke:#9ABAE3;stroke-width:2.5;stroke-linecap:round;stroke-linejoin:round;stroke-miterlimit:10;" width="242.237" height="107.734"/>
			
				<rect x="71.112" y="45.571" style="fill:none;stroke:#9ABAE3;stroke-width:2.5;stroke-linecap:round;stroke-linejoin:round;stroke-miterlimit:10;" width="91.734" height="226.238"/>
			
				<line style="fill:none;stroke:#9ABAE3;stroke-width:2.5;stroke-linecap:round;stroke-linejoin:round;stroke-miterlimit:10;" x1="116.979" y1="45.571" x2="116.979" y2="271.809"/>
			
				<line style="fill:none;stroke:#9ABAE3;stroke-width:2.5;stroke-linecap:round;stroke-linejoin:round;stroke-miterlimit:10;" x1="71.112" y1="101.8" x2="162.846" y2="101.8"/>
		</g>
	</g>
</g>
<g id="Plant">
	<g>
		<g>
			
				<path style="fill:#9ABAE3;stroke:#263238;stroke-width:2.5;stroke-linecap:round;stroke-linejoin:round;stroke-miterlimit:10;" d="
				M221.509,406.41c0,0-32.068-12.728-44.796-27.605c0,0,26.613,0.661,34.713,8.926C219.526,395.997,221.509,406.41,221.509,406.41z
				"/>
			
				<path style="fill:#9ABAE3;stroke:#263238;stroke-width:2.5;stroke-linecap:round;stroke-linejoin:round;stroke-miterlimit:10;" d="
				M239.661,407.583c0,0,4.463-14.05,9.091-20.662c4.628-6.612,21.819-20.617,21.819-20.617s-9.918,20.121-13.224,24.253
				C254.042,394.689,239.661,407.583,239.661,407.583z"/>
			
				<path style="fill:#9ABAE3;stroke:#263238;stroke-width:2.5;stroke-linecap:round;stroke-linejoin:round;stroke-miterlimit:10;" d="
				M242.401,382.478c0,0,0.163-16.439,1.651-21.443c1.488-5.004,22.977-27.981,35.539-31.617
				C279.591,329.417,260.586,364.295,242.401,382.478z"/>
			
				<path style="fill:#9ABAE3;stroke:#263238;stroke-width:2.5;stroke-linecap:round;stroke-linejoin:round;stroke-miterlimit:10;" d="
				M233.165,381.378c0,0-13.276-18.49-14.331-34.498c-1.055-16.008-0.304-43.409-0.304-43.409s18.619,27.403,20.28,41.544
				C240.47,359.156,233.165,381.378,233.165,381.378z"/>
			<path style="fill:none;stroke:#263238;stroke-width:2.5;stroke-linecap:round;stroke-linejoin:round;stroke-miterlimit:10;" d="
				M221.509,406.41c3.378,2.994,11.235,13.37,11.796,14.075c0.561,0.705,0.561,6.317,0.561,6.317"/>
			<path style="fill:none;stroke:#263238;stroke-width:2.5;stroke-linecap:round;stroke-linejoin:round;stroke-miterlimit:10;" d="
				M233.165,381.378c0,5.156,0,45.424,0,45.424"/>
			<path style="fill:none;stroke:#263238;stroke-width:2.5;stroke-linecap:round;stroke-linejoin:round;stroke-miterlimit:10;" d="
				M242.417,381.378c-2.518,4.876-7.428,27.889-7.568,30.832c-0.14,2.943-0.062,14.592-0.062,14.592"/>
			<path style="fill:none;stroke:#263238;stroke-width:2.5;stroke-linecap:round;stroke-linejoin:round;stroke-miterlimit:10;" d="
				M240.555,406.271c-2.388,2.775-5.79,10.282-5.79,11.548c0,1.267,0,8.983,0,8.983"/>
		</g>
		<path style="fill:#EC644E;" d="M251.067,451.205c-1.819,10.416-4.958,16.53-4.958,16.53h-22.48c0,0-3.139-6.114-4.958-16.53
			c-1.819-10.416-1.327-25.537-1.327-25.537h35.044C252.387,425.668,252.886,440.789,251.067,451.205z"/>
		<path style="fill:#FFFFFF;" d="M251.067,451.205c-1.819,10.416-4.958,16.53-4.958,16.53h-3.967c0,0,3.139-6.114,4.958-16.53
			c1.819-10.416,1.32-25.537,1.32-25.537h3.967C252.387,425.668,252.886,440.789,251.067,451.205z"/>
		<path style="fill:none;stroke:#263238;stroke-width:2.5;stroke-linecap:round;stroke-linejoin:round;stroke-miterlimit:10;" d="
			M251.067,451.205c-1.819,10.416-4.958,16.53-4.958,16.53h-22.48c0,0-3.139-6.114-4.958-16.53
			c-1.819-10.416-1.327-25.537-1.327-25.537h35.044C252.387,425.668,252.886,440.789,251.067,451.205z"/>
	</g>
</g>
<g id="Speech_Bubble">
	<g>
		
			<path style="fill:#FFFFFF;stroke:#263238;stroke-width:2.1982;stroke-linecap:round;stroke-linejoin:round;stroke-miterlimit:10;" d="
			M411.095,41.365c-11.846-4.535-27.427-3.287-37.415,4.991c-8.895,7.367-11.803,20.684-7.591,31.31
			c5.025,12.673,19.514,19.584,32.635,17.39c0.869-0.147-0.758,5.942-4.542,9.364c-1.486,1.343-2.972,2.607-4.717,3.497
			c8.068-0.631,15.953-4.051,18.105-12.729c9.617-3.006,23.796-11.838,24.161-24.448C432.116,57.64,423.06,45.935,411.095,41.365z"
			/>
		<path style="fill:#EC644E;" d="M392.247,79.438l-8.645-8.645c-0.437-0.437-0.437-1.145,0-1.582l2.62-2.62
			c0.437-0.437,1.145-0.437,1.582,0l4.813,4.813c0.233,0.233,0.611,0.233,0.844,0l14.669-14.668c0.437-0.437,1.145-0.437,1.582,0
			l2.619,2.62c0.437,0.437,0.437,1.145,0,1.582l-18.501,18.5C393.392,79.875,392.684,79.875,392.247,79.438z"/>
	</g>
</g>
<g id="Character_2">
	<g>
		<g>
			<g>
				<g>
					<g>
						<polygon style="fill:#EC644E;" points="351.6,449.96 351.6,467.735 287.387,467.735 307.606,449.96 						"/>
						
							<polygon style="fill:none;stroke:#263238;stroke-width:2.5;stroke-linecap:round;stroke-linejoin:round;stroke-miterlimit:10;" points="
							351.6,449.96 351.6,467.735 287.387,467.735 307.606,449.96 						"/>
					</g>
					<g>
						
							<polygon style="fill:#FFFFFF;stroke:#263238;stroke-width:2.5;stroke-linecap:round;stroke-linejoin:round;stroke-miterlimit:10;" points="
							306.704,428.631 307.606,449.959 351.604,449.959 354.589,428.631 						"/>
						
							<line style="fill:none;stroke:#263238;stroke-width:2.5;stroke-linecap:round;stroke-linejoin:round;stroke-miterlimit:10;" x1="348.267" y1="434.74" x2="306.903" y2="434.74"/>
					</g>
					
						<line style="fill:none;stroke:#263238;stroke-width:2.5;stroke-linecap:round;stroke-linejoin:round;stroke-miterlimit:10;" x1="316.667" y1="454.964" x2="303.545" y2="450.981"/>
					
						<line style="fill:none;stroke:#263238;stroke-width:2.5;stroke-linecap:round;stroke-linejoin:round;stroke-miterlimit:10;" x1="313.265" y1="457.776" x2="300.143" y2="453.793"/>
				</g>
				<g>
					<path style="fill:#9ABAE3;" d="M366.6,224.5h-57.739c-4.6,27.209-11.2,104.116-10.534,111.893
						c0.535,6.237-1.136,78.033-2.435,99.321c-0.32,5.254,4.663,10.277,4.663,10.277s-4.507-6.945,35.561-0.16
						c7.584,1.284,21.599,1.528,23.21-5.224c0.768-3.22-1.535-10.972-1.535-10.972c0.791-14.962-0.525-43.003,0.154-59.968
						c0.889-22.219-4.257-32.631-4.257-32.631c1.904-10.71,2.881-37.449,6.206-61.694L366.6,224.5z"/>
					<path style="fill:#FFFFFF;" d="M303.719,435.719c-0.166,2.695,1.071,5.334,2.316,7.263c-6.793,0.545-5.593,2.824-5.491,2.999
						c-0.286-0.295-4.965-5.168-4.651-10.263c1.301-21.291,2.972-93.084,2.436-99.323c-0.664-7.78,5.934-84.686,10.53-111.893h7.826
						c-4.596,27.207-11.195,104.113-10.53,111.893C306.69,342.635,305.02,414.427,303.719,435.719z"/>
					
						<path style="fill:none;stroke:#263238;stroke-width:2.5;stroke-linecap:round;stroke-linejoin:round;stroke-miterlimit:10;" d="
						M366.6,224.5h-57.739c-4.6,27.209-11.2,104.116-10.534,111.893c0.535,6.237-1.136,78.033-2.435,99.321
						c-0.32,5.254,4.663,10.277,4.663,10.277s-4.507-6.945,35.561-0.16c7.584,1.284,21.599,1.528,23.21-5.224
						c0.768-3.22-1.535-10.972-1.535-10.972c0.791-14.962-0.525-43.003,0.154-59.968c0.889-22.219-4.257-32.631-4.257-32.631
						c1.904-10.71,2.881-37.449,6.206-61.694L366.6,224.5z"/>
					
						<path style="fill:none;stroke:#263238;stroke-width:2.5;stroke-linecap:round;stroke-linejoin:round;stroke-miterlimit:10;" d="
						M316.047,255.281c0,0-6.763,69.471-6.705,80.025c0.032,5.85-0.714,95.688-0.714,95.688"/>
					<path style="fill:#263238;" d="M308.376,442.063l0.027,5.685c0,0-7.262,1.111-8.668-1.162
						C298.33,444.313,308.376,442.063,308.376,442.063z"/>
					
						<path style="fill:none;stroke:#263238;stroke-width:2.5;stroke-linecap:round;stroke-linejoin:round;stroke-miterlimit:10;" d="
						M324.639,232.548c0,0-1.356,19.797-13.889,15.961"/>
				</g>
			</g>
			<g>
				<g>
					<g>
						<polygon style="fill:#EC644E;" points="393.082,449.96 393.082,467.735 457.295,467.735 437.076,449.96 						"/>
						
							<polygon style="fill:none;stroke:#263238;stroke-width:2.5;stroke-linecap:round;stroke-linejoin:round;stroke-miterlimit:10;" points="
							393.082,449.96 393.082,467.735 457.295,467.735 437.076,449.96 						"/>
					</g>
					<g>
						
							<polygon style="fill:#FFFFFF;stroke:#263238;stroke-width:2.5;stroke-linecap:round;stroke-linejoin:round;stroke-miterlimit:10;" points="
							433.667,428.631 437.076,449.959 393.077,449.959 386.852,428.631 						"/>
						
							<line style="fill:none;stroke:#263238;stroke-width:2.5;stroke-linecap:round;stroke-linejoin:round;stroke-miterlimit:10;" x1="395.15" y1="434.74" x2="434.576" y2="434.74"/>
					</g>
					
						<line style="fill:none;stroke:#263238;stroke-width:2.5;stroke-linecap:round;stroke-linejoin:round;stroke-miterlimit:10;" x1="428.015" y1="454.964" x2="441.137" y2="450.981"/>
					
						<line style="fill:none;stroke:#263238;stroke-width:2.5;stroke-linecap:round;stroke-linejoin:round;stroke-miterlimit:10;" x1="431.417" y1="457.776" x2="444.539" y2="453.793"/>
				</g>
				<g>
					
						<path style="fill:#9ABAE3;stroke:#263238;stroke-width:2.5;stroke-linecap:round;stroke-linejoin:round;stroke-miterlimit:10;" d="
						M343.508,265.059c4.143,1.841,10.309,4.028,10.814,7.176c5.207,32.433,11.073,63.29,11.073,63.29s1.165,12.539,1.632,22.372
						c0.982,20.665,12.319,52.01,15.767,70.677c0,0-1.298,11.557,1.188,14.621c3.062,3.774,4.911,1.563,18.4,0.437
						c41.295-3.447,40.26,0.626,40.26,0.626s8.209-4.814,5.872-14.095c-8.306-32.986-19.02-82.699-20.499-93.544
						c-0.703-5.155-23.268-112.119-23.268-112.119h-57.092"/>
					<path style="fill:#263238;" d="M434.288,441.988l0.608,4.265c0,0,7.525,0.694,8.72-1.578
						C444.811,442.401,434.288,441.988,434.288,441.988z"/>
					
						<path style="fill:none;stroke:#263238;stroke-width:2.5;stroke-linecap:round;stroke-linejoin:round;stroke-miterlimit:10;" d="
						M400.405,255.281c0,0,18.02,78.438,19.164,86.862c0.763,5.618,18.22,87.005,18.22,87.005"/>
					
						<path style="fill:none;stroke:#263238;stroke-width:2.5;stroke-linecap:round;stroke-linejoin:round;stroke-miterlimit:10;" d="
						M378.895,232.548c0,0,2.059,19.797,21.087,15.961"/>
					
						<path style="fill:none;stroke:#263238;stroke-width:2.5;stroke-linecap:round;stroke-linejoin:round;stroke-miterlimit:10;" d="
						M342.175,229.765c0,0-0.867,25.013,0.694,27.468c1.56,2.455,8.159,3.836,8.772,3.376c0.614-0.46,0-30.844,0-30.844"/>
				</g>
			</g>
		</g>
		<g>
			<g>
				<g>
					
						<path style="fill:#F0BA92;stroke:#263238;stroke-width:2.5;stroke-linecap:round;stroke-linejoin:round;stroke-miterlimit:10;" d="
						M273.702,233.316c-11.714,2.824-18.428,5.457-19.275,5.829c-6.189,2.72-19.422,10.686-24.613,7.029
						c-2.354-1.658-3.155-4.191-3.155-4.191s-4.477,0.575-5.977-2.284c-1.315-2.507,1.987-5.763,1.987-5.763
						s-5.296,1.62-6.708-1.521c-2.361-5.251,20.14-24.504,20.651-24.893c5.049-3.834,25.278-9.925,25.278-9.925L273.702,233.316z"/>
					
						<path style="fill:#FCD8C3;stroke:#263238;stroke-width:2.5;stroke-linecap:round;stroke-linejoin:round;stroke-miterlimit:10;" d="
						M227.166,241.886c4.539-0.305,13.166-5.954,13.166-5.954"/>
					
						<path style="fill:#FCD8C3;stroke:#263238;stroke-width:2.5;stroke-linecap:round;stroke-linejoin:round;stroke-miterlimit:10;" d="
						M221.951,234.265c5.331-2.364,12.402-7.414,12.402-7.414"/>
					
						<path style="fill:#F0BA92;stroke:#263238;stroke-width:2.5;stroke-linecap:round;stroke-linejoin:round;stroke-miterlimit:10;" d="
						M247.665,203.486c0,0-10.998-3.14-18.471,0.557c-2.718,1.345-7.022,3.025-8.72,3.81c-3.956,1.829-3.142,7.311,5.335,7.392
						c4.415,0.042,4.136-0.616,10.145-1.065"/>
				</g>
				<g>
					<g>
						<g>
							<path style="fill:#FFFFFF;" d="M252.246,203.924c4.889-1.569,40.758-20.944,40.758-20.944
								c4.463-6.623,16.439-43.147,30.281-53.065c2.041-1.458,3.207-2.625,5.394-3.63c-4.104,1.114-7.681,2.859-11.704,5.75
								c-12.138,8.7-23.713,41.164-27.621,46.974c0,0-35.849,19.364-37.306,19.287C251.224,198.252,251.191,200.157,252.246,203.924
								z"/>
						</g>
					</g>
				</g>
				<g>
					<g>
						<g>
							<path style="fill:#EC644E;" d="M340.497,125.21c0,0-13.023-0.698-23.527,6.828c-12.137,8.696-23.707,41.162-27.621,46.971
								c0,0-35.842,19.364-37.305,19.289c-1.463-0.074-0.432,5.951,4.761,17.641c5.193,11.69,11.057,22.725,8.894,25.251
								c0,0,6.655,2.751,13.882-0.689c11.918-5.674,31.867-19.755,39.078-24.435c7.529-4.886,18.486-41.478,18.486-41.478"/>
						</g>
					</g>
				</g>
				<g>
					<g>
						<g>
							<path style="fill:#FFFFFF;" d="M338.77,125.2c-4.49,1.51-10.96,4.21-17.17,8.66c-12.79,9.16-24.8,44.65-28.92,50.77
								c0,0-32.74,17.62-39.96,20.83c-1.53-4.79-1.61-7.21-0.68-7.16c1.47,0.07,37.31-19.29,37.31-19.29
								c3.91-5.81,15.48-38.28,27.62-46.97C325.16,126.17,334.89,125.3,338.77,125.2z"/>
						</g>
					</g>
				</g>
				<g>
					<g>
						<g>
							
								<path style="fill:none;stroke:#263238;stroke-width:2.5;stroke-linecap:round;stroke-linejoin:round;stroke-miterlimit:10;" d="
								M340.497,125.21c0,0-13.023-0.698-23.527,6.828c-12.137,8.696-23.707,41.162-27.621,46.971c0,0-35.842,19.364-37.305,19.289
								c-1.463-0.074-0.432,5.951,4.761,17.641c5.193,11.69,11.057,22.725,8.894,25.251c0,0,6.655,2.751,13.882-0.689
								c11.918-5.674,31.867-19.755,39.078-24.435c7.529-4.886,18.486-41.478,18.486-41.478"/>
						</g>
					</g>
				</g>
			</g>
			<g>
				<g>
					<path style="fill:#EC644E;" d="M395.123,135.736c9.492,9.964,11.258,40.35,14.193,65.284c0,0,8.013,15.819,7.179,27.126
						c-0.458,6.203-3.898,8.803-6.447,10.036c0,0-98.2,2.641-104.528-0.528c-4.026-2.017-10.833-4.688-6.452-21.921
						c1.705-6.708,6.5-19.679,9.948-34.211c0,0,2.94-30.808,15.958-48.26c2.365-3.171,10.448-9.985,33.964-6.329
						C374.02,129.28,383.302,123.326,395.123,135.736z"/>
					
						<path style="fill:none;stroke:#263238;stroke-width:2.5;stroke-linecap:round;stroke-linejoin:round;stroke-miterlimit:10;" d="
						M337.127,125.231c8.28,0,15.125-0.173,20.307,0.467c15.138,1.87,25.868-2.372,37.689,10.038
						c9.492,9.964,11.258,40.35,14.193,65.284c0,0,8.013,15.819,7.179,27.126c-0.458,6.203-3.898,8.803-6.447,10.036
						c0,0-98.2,2.641-104.528-0.528c-4.026-2.017-10.833-4.688-6.452-21.921c1.705-6.708,4.604-16.291,9.948-34.211
						c1.55-5.2,3.078-20.402,6.248-29.323"/>
					
						<path style="fill:none;stroke:#263238;stroke-width:2.5;stroke-linecap:round;stroke-linejoin:round;stroke-miterlimit:10;" d="
						M403.003,231.58c0,0-10.927,6.518-23.283,7.22c-12.356,0.703-24.346-5.834-24.346-5.834"/>
					
						<path style="fill:none;stroke:#263238;stroke-width:2.5;stroke-linecap:round;stroke-linejoin:round;stroke-miterlimit:10;" d="
						M327.074,238.854c-4.835-0.737-13.432-7.273-13.432-7.273"/>
					
						<path style="fill:none;stroke:#263238;stroke-width:2.5;stroke-linecap:round;stroke-linejoin:round;stroke-miterlimit:10;" d="
						M310.029,154.766c0,0,2.777,0.935,2.551,7.849"/>
				</g>
			</g>
			<g>
				
					<path style="fill:#EC644E;stroke:#263238;stroke-width:2.5;stroke-linecap:round;stroke-linejoin:round;stroke-miterlimit:10;" d="
					M352.446,120.437c-11.465,1.913-13.585,16.389-12.723,16.734c0.862,0.345,9.432-2.327,9.432-2.327s9.651,5.113,11.719,5.199
					c0,0,5.656-2.183,5.445-10.42C366.112,121.581,357.747,119.552,352.446,120.437z"/>
				<path style="fill:#263238;" d="M349.384,128.763c0,0-2.975,5.779,0.157,6.063c4.911,0.446,10.622-7.929,10.622-7.929
					L349.384,128.763z"/>
				<g>
					<g>
						<path style="fill:#F0BA92;" d="M364.643,116.172c0.85-8.268-4.107-15.55-11.071-16.266
							c-6.964-0.716-13.298,5.406-14.148,13.674c-0.85,8.268,4.107,15.55,11.071,16.266
							C357.459,130.561,363.793,124.439,364.643,116.172z"/>
						<path style="fill:#FFFFFF;" d="M350.495,129.846c1.943,0.198,3.843-0.135,5.582-0.906c-0.91,0.158-1.841,0.193-2.79,0.099
							c-6.601-0.682-11.299-7.584-10.496-15.424c0.808-7.841,6.813-13.642,13.413-12.965c0.166,0.019,0.337,0.037,0.5,0.066
							c-0.983-0.421-2.035-0.7-3.134-0.811c-6.961-0.714-13.297,5.408-14.147,13.675
							C338.573,121.849,343.528,129.129,350.495,129.846z"/>
						
							<path style="fill:none;stroke:#263238;stroke-width:2.5;stroke-linecap:round;stroke-linejoin:round;stroke-miterlimit:10;" d="
							M364.643,116.172c0.85-8.268-4.107-15.55-11.071-16.266c-6.964-0.716-13.298,5.406-14.148,13.674
							c-0.85,8.268,4.107,15.55,11.071,16.266C357.459,130.561,363.793,124.439,364.643,116.172z"/>
					</g>
					<g>
						<path style="fill:#263238;" d="M364.216,117.061c0,0-5.519-1.125-6.896-6.535c0,0-8.664,0.277-8.966-6.59
							c0,0-4.166,3.151-6.589,1.11c0,0,6.222-10.217,16.202-4.377C367.947,106.511,364.216,117.061,364.216,117.061z"/>
					</g>
				</g>
				<polygon style="fill:#263238;" points="346.117,135.752 346.686,140.043 351.246,140.473 352.939,136.774 349.155,134.843 				
					"/>
				<polygon style="fill:#263238;" points="346.686,140.043 351.246,140.473 352.939,173.131 344.915,182.896 338.665,172.427 				
					"/>
			</g>
		</g>
		<g>
			<g>
				
					<polygon style="fill:#EC644E;stroke:#263238;stroke-width:2.5;stroke-linecap:round;stroke-linejoin:round;stroke-miterlimit:10;" points="
					441.806,263.461 441.806,279.818 434.106,279.818 434.106,270.85 410.303,270.85 410.303,279.818 402.603,279.818 
					402.603,263.461 				"/>
				<g>
					<path style="fill:#EC644E;" d="M464.068,339.38l-83.724,0c-2.31,0-4.147-1.937-4.026-4.243l2.849-54.163h86.077l2.849,54.163
						C468.215,337.443,466.378,339.38,464.068,339.38z"/>
					<path style="fill:#FFFFFF;" d="M384.138,339.379l-3.797-0.004c-2.311,0.005-4.139-1.936-4.025-4.232l2.848-54.165l6.061,0.003
						l-2.878,54.721C382.27,337.217,382.994,338.567,384.138,339.379z"/>
					
						<path style="fill:none;stroke:#263238;stroke-width:2.5;stroke-linecap:round;stroke-linejoin:round;stroke-miterlimit:10;" d="
						M464.068,339.38l-83.724,0c-2.31,0-4.147-1.937-4.026-4.243l2.849-54.163h86.077l2.849,54.163
						C468.215,337.443,466.378,339.38,464.068,339.38z"/>
				</g>
				<path style="fill:#EC644E;" d="M457.95,301.407h-71.487c-4.805,0-8.7-3.895-8.699-8.7l0-15.651h88.886l0,15.651
					C466.649,297.513,462.754,301.407,457.95,301.407z"/>
				<path style="fill:#FFFFFF;" d="M459.327,300.982c-0.923,0.28-1.891,0.422-2.905,0.426l-68.435,0.004
					c-5.649-0.01-10.23-4.59-10.22-10.238l0.001-14.114l5.813-0.003l0.003,13.689c0.002,5.648,4.583,10.228,10.232,10.238
					L459.327,300.982z"/>
				<path style="fill:none;stroke:#263238;stroke-width:2.5;stroke-linecap:round;stroke-linejoin:round;stroke-miterlimit:10;" d="
					M457.95,301.407h-71.487c-4.805,0-8.7-3.895-8.699-8.7l0-15.651h88.886l0,15.651
					C466.649,297.513,462.754,301.407,457.95,301.407z"/>
				<rect x="412.671" y="298.172" style="fill:#FFFFFF;" width="19.072" height="9.417"/>
			</g>
			<g>
				
					<path style="fill:#F0BA92;stroke:#263238;stroke-width:2.5;stroke-linecap:round;stroke-linejoin:round;stroke-miterlimit:10;" d="
					M427.803,277.509c0,0,6.04,5.64,9.705-2.29c0,0,5.561-0.717,8.09-5.944c3.672-7.587-1.009-20.631-4.737-30.422
					c0,0-1.43-4.985-2.075-6.605l-31.302,3.852l-1.037,6.96c-0.098,0.08-5.453,15.719,1.03,20.4h5.192
					c3.106-0.5,4.567,4.982,5.623,13.19C419.042,282.479,426.191,282.368,427.803,277.509z"/>
				<path style="fill:none;stroke:#263238;stroke-width:2.5;stroke-linecap:round;stroke-linejoin:round;stroke-miterlimit:10;" d="
					M427.481,278.277c2.186-4.396,0.777-10.006,0.777-10.006"/>
				<path style="fill:none;stroke:#263238;stroke-width:2.5;stroke-linecap:round;stroke-linejoin:round;stroke-miterlimit:10;" d="
					M437.508,275.219c1.032-2.552,0.801-7.897,0.801-7.897"/>
			</g>
			<g>
				<g>
					
						<path style="fill:#EC644E;stroke:#263238;stroke-width:2.5;stroke-linecap:round;stroke-linejoin:round;stroke-miterlimit:10;" d="
						M373.61,126.455c10.427,0,26.359,3.858,32.286,13.406c9.828,15.831,27.837,74.033,33.246,83.448
						c3.762,6.548,2.438,7.965,2.438,7.965c-9.556,14.491-41.061,4.974-38.951,16.539c0,0-3.769-0.202-5.952-6.571
						c-3.979-11.61-5.968-28.358-6.956-34.556c-0.392-2.46-7.345-22.142-10.223-37.87c-0.437-2.385-3.205-5.243-3.205-5.243"/>
				</g>
				<path style="fill:#263238;" d="M401.528,248.082c1.121,2.122,3.918,0.631,3.918,0.631l2.038-5.97
					C407.484,242.743,400.108,245.395,401.528,248.082z"/>
			</g>
		</g>
	</g>
</g>
<g id="Character_1">
	<g>
		<g>
			<g>
				<g>
					<g>
						<polygon style="fill:#263238;" points="49.04,449.547 49.04,466.364 109.79,466.364 90.661,449.547 						"/>
						
							<polygon style="fill:#9ABAE3;stroke:#263238;stroke-width:2.5;stroke-linecap:round;stroke-linejoin:round;stroke-miterlimit:10;" points="
							49.04,449.547 49.04,466.364 109.79,466.364 90.661,449.547 						"/>
					</g>
				</g>
				<g>
					
						<path style="fill:#FCD8C3;stroke:#263238;stroke-width:2.5;stroke-linecap:round;stroke-linejoin:round;stroke-miterlimit:10;" d="
						M90.662,449.549l8.41,7.39l-50.04-7.39l-0.57-11.67c0,0,0-0.02-0.01-0.07c-0.32-2.11-5.483-49.036,0.587-75.046
						c4.58-19.64,10.871-29.464,10.871-29.464c1.19-8.06,6.771-28.48,10.471-51.23c0,0-6.81-18.41,6.73-51.4h58.71
						c0.16,39.2-21.03,101.28-22.93,109.86C111.612,346.309,90.662,449.549,90.662,449.549z"/>
				</g>
			</g>
			<g>
				<g>
					<g>
						
							<polygon style="fill:#263238;stroke:#263238;stroke-width:2.5;stroke-linecap:round;stroke-linejoin:round;stroke-miterlimit:10;" points="
							143.267,450.919 143.267,467.735 204.018,467.735 184.888,450.919 						"/>
						
							<polygon style="fill:#9ABAE3;stroke:#263238;stroke-width:2.5;stroke-linecap:round;stroke-linejoin:round;stroke-miterlimit:10;" points="
							143.267,450.919 143.267,467.735 204.018,467.735 184.888,450.919 						"/>
					</g>
				</g>
				<g>
					
						<path style="fill:#FCD8C3;stroke:#263238;stroke-width:2.5;stroke-linecap:round;stroke-linejoin:round;stroke-miterlimit:10;" d="
						M119.322,230.667h52.534c0.205,2.693,2.122,10.142,3.333,13.661c4.212,12.244,16.054,89.639,15.492,96.198
						c-0.506,5.901-5.793,110.393-5.793,110.393l7.573,6.657l-49.194-6.657c0,0-13.894-57.892-14.735-78.913
						c-0.841-21.021,3.92-38.707,3.92-38.707c-1.801-10.132-6.461-24.671-11.338-47.31
						C116.496,264.553,119.322,230.667,119.322,230.667z"/>
				</g>
			</g>
			<g>
				<g>
					<path style="fill:#263238;" d="M77.112,230.669c0,0-14.645,21.471-12.775,51.619c0,0-5.321,30.815-7.759,36.579
						c-2.439,5.764-17.699,33.935-16.627,39.24c0.986,4.877,3.064,6.141,3.064,6.141s0.705-7.028,13.119-5.92
						c12.415,1.108,30.438,10.343,63.181,11.75c32.743,1.407,69.175-13.302,75.023-9.533c2.332,1.503,0,3.769,0,3.769
						s9.449,3.326,0.99-37.443c-3.917-18.878-17.48-81.418-17.701-85.281c-0.222-3.863-3.665-10.925-3.665-10.925L77.112,230.669z"
						/>
					<path style="fill:#FFFFFF;" d="M71.63,283.98c0,0-5.33,31.82-7.78,37.78c-2.14,5.22-14.14,28.2-16.35,37.49
						c-4.15,1.72-4.48,5-4.48,5s-2.08-1.27-3.07-6.14c-1.07-5.31,14.19-33.48,16.63-39.24c2.44-5.77,7.76-36.58,7.76-36.58
						c-1.87-30.15,12.77-51.62,12.77-51.62h7.31C84.42,230.67,69.75,252.84,71.63,283.98z"/>
					
						<path style="fill:none;stroke:#263238;stroke-width:2.5;stroke-linecap:round;stroke-linejoin:round;stroke-miterlimit:10;" d="
						M77.112,230.669c0,0-14.645,21.471-12.775,51.619c0,0-5.321,30.815-7.759,36.579c-2.439,5.764-17.699,33.935-16.627,39.24
						c0.986,4.877,3.064,6.141,3.064,6.141s0.705-7.028,13.119-5.92c12.415,1.108,30.438,10.343,63.181,11.75
						c32.743,1.407,69.175-13.302,75.023-9.533c2.332,1.503,0,3.769,0,3.769s9.449,3.326,0.99-37.443
						c-3.917-18.878-17.48-81.418-17.701-85.281c-0.222-3.863-3.665-10.925-3.665-10.925L77.112,230.669z"/>
				</g>
				<path style="fill:#263238;" d="M42.211,365.08c1.128,1.997,5.777,1.718,5.777,1.718l1.581-6.956
					C49.568,359.843,40.216,361.547,42.211,365.08z"/>
				<path style="fill:#263238;" d="M190.818,361.145l-0.333,5.099c0,0,4.711,0,6.54-1.441
					C198.854,363.362,193.755,360.702,190.818,361.145z"/>
				<path style="fill:none;stroke:#FFFFFF;stroke-width:2.5;stroke-linecap:round;stroke-linejoin:round;stroke-miterlimit:10;" d="
					M101.702,299.921c0,0,19.756,8.868,26.739,21.948"/>
				<path style="fill:none;stroke:#FFFFFF;stroke-width:2.5;stroke-linecap:round;stroke-linejoin:round;stroke-miterlimit:10;" d="
					M109.403,310.008c0,0,4.074,2.66,6.568,9.062"/>
			</g>
		</g>
		<g>
			<g>
				<g>
					<g>
						<path style="fill:#FCD8C3;" d="M107.818,122.887c-1.752-8.798,2.835-17.126,10.246-18.602
							c7.411-1.476,14.838,4.46,16.59,13.258c1.752,8.798-2.835,17.126-10.246,18.602
							C116.998,137.62,109.57,131.684,107.818,122.887z"/>
						<path style="fill:#FFFFFF;" d="M124.407,136.145c-2.068,0.41-4.144,0.245-6.09-0.407c0.994,0.078,1.998,0.021,3.007-0.177
							c7.024-1.402,11.372-9.296,9.713-17.639c-1.664-8.343-8.705-13.967-15.728-12.57c-0.177,0.037-0.358,0.074-0.531,0.122
							c1.014-0.552,2.116-0.958,3.286-1.189c7.408-1.473,14.837,4.462,16.589,13.259S131.821,134.667,124.407,136.145z"/>
						
							<path style="fill:none;stroke:#263238;stroke-width:2.5;stroke-linecap:round;stroke-linejoin:round;stroke-miterlimit:10;" d="
							M107.818,122.887c-1.752-8.798,2.835-17.126,10.246-18.602c7.411-1.476,14.838,4.46,16.59,13.258
							c1.752,8.798-2.835,17.126-10.246,18.602C116.998,137.62,109.57,131.684,107.818,122.887z"/>
					</g>
					<path style="fill:#263238;" d="M109.066,127.328c0,0,15.039,1.748,21.551-18.2c0,0-7.738-9.763-17.463-2.598
						S109.066,127.328,109.066,127.328z"/>
				</g>
			</g>
			<g>
				<g>
					<path style="fill:#EC644E;" d="M102,131.7c-16.677-2.46-32.218,13.193-43.321,27.759
						c-11.103,14.566-22.247,28.256-21.392,40.442c0.854,12.186,20.895,19.908,32.112,9.074c10.235-9.885,36.848-49.041,40.152-58.1
						C112.855,141.816,109.846,132.857,102,131.7z"/>
				</g>
				<g>
					<path style="fill:#FFFFFF;" d="M37.285,199.899c0.286,4.104,2.745,7.698,6.311,10.245c-1.237-1.871-2.007-3.971-2.163-6.207
						c-0.9-12.842,10.842-27.27,22.539-42.619c10.237-13.422,23.767-26.705,39.102-29.396c-0.346-0.097-0.705-0.168-1.077-0.221
						c-16.675-2.463-32.215,13.194-43.317,27.757C47.579,174.027,36.43,187.714,37.285,199.899z"/>
				</g>
				<g>
					
						<path style="fill:none;stroke:#263238;stroke-width:2.5;stroke-linecap:round;stroke-linejoin:round;stroke-miterlimit:10;" d="
						M102,131.7c-16.677-2.46-32.218,13.193-43.321,27.759c-11.103,14.566-22.247,28.256-21.392,40.442
						c0.854,12.186,20.895,19.908,32.112,9.074c10.235-9.885,36.848-49.041,40.152-58.1C112.855,141.816,109.846,132.857,102,131.7z
						"/>
				</g>
			</g>
			<g>
				<g>
					<path style="fill:#EC644E;" d="M124.539,132.697c-11.239,0.109-14.895-3.431-25.261,0.113
						c-28.562,9.764-24.365,76.507-27.141,84.711c-7.66,22.633-10.043,25.42-9.46,27.916c0,0,0.556-2.112,7.415-0.215
						c5.433,1.502,18.901,4.418,40.25,6.644c21.35,2.226,51.102-4.727,61.659-4.546c13.428,0.229,14.305,3.036,14.305,3.036
						s0.78-5.689-0.905-13.721c-0.953-4.542-16.747-51.328-16.747-51.328s3.255-5.335,2.073-9.547
						c-3.805-13.563-12.888-33.741-17.649-37.67C142.685,129.512,131.355,132.631,124.539,132.697z"/>
					
						<path style="fill:none;stroke:#263238;stroke-width:2.5;stroke-linecap:round;stroke-linejoin:round;stroke-miterlimit:10;" d="
						M75.377,178.45c-2.203,16.621-1.961,35.29-3.241,39.071c-7.66,22.633-10.043,25.42-9.46,27.916c0,0,0.556-2.112,7.415-0.215
						c5.433,1.502,18.901,4.418,40.25,6.644c21.35,2.226,51.102-4.727,61.659-4.546c13.428,0.229,14.305,3.036,14.305,3.036
						s0.78-5.689-0.905-13.721c-0.953-4.542-16.747-51.328-16.747-51.328s3.255-5.335,2.073-9.547
						c-3.805-13.563-12.888-33.741-17.649-37.67c-10.394-8.577-23.37-5.401-30.187-5.335c-11.239,0.109-18.906-2.419-29.492-0.791"
						/>
					<path style="fill:#263238;" d="M178.725,247.352l1.562,5.774c0,0,6.777-0.116,7.104-2.393S178.725,247.352,178.725,247.352z"/>
					<path style="fill:#263238;" d="M61.794,245.889c-0.033,1.257,2.717,2.124,7.324,4.062l1.016-5.379
						C70.135,244.572,61.873,242.848,61.794,245.889z"/>
				</g>
				<path style="fill:none;stroke:#263238;stroke-width:2.5;stroke-linecap:round;stroke-linejoin:round;stroke-miterlimit:10;" d="
					M112.255,226.05c0,0,6.982-2.287,15.364-9.097"/>
				<path style="fill:none;stroke:#263238;stroke-width:2.5;stroke-linecap:round;stroke-linejoin:round;stroke-miterlimit:10;" d="
					M122.152,226.471c0,0,5.234-2.039,7.088-3.162"/>
			</g>
			<path style="fill:none;stroke:#263238;stroke-width:2.5;stroke-linecap:round;stroke-linejoin:round;stroke-miterlimit:10;" d="
				M109.69,219.862c0,0,6.633-1.975,14.699-8.173"/>
			<path style="fill:none;stroke:#263238;stroke-width:2.5;stroke-linecap:round;stroke-linejoin:round;stroke-miterlimit:10;" d="
				M118.999,220.511c0,0,4.98-1.787,6.755-2.796"/>
			<g>
				<g>
					<g>
						
							<path style="fill:#FCD8C3;stroke:#263238;stroke-width:2.5;stroke-linecap:round;stroke-linejoin:round;stroke-miterlimit:10;" d="
							M211.571,202.045c2.299,0.512,11.739,0.446,20.694,3.133c30.395,9.119,30.66,27.785,24.973,26.098c0,0,1.864,2.199-0.053,5.8
							c-0.433,0.813-3.853,3.946-8.495-1.702c0,0,3.337,6.105-1.037,7.3c-3.447,0.942-6.143-4.015-15.639-6.573
							c-4.43,2.023-13.393,3.306-21.17,1.768c-2.869-0.567-9.886-2.719-9.092-2.566
							C200.226,234.966,200.082,208.831,211.571,202.045z"/>
						
							<path style="fill:none;stroke:#263238;stroke-width:2.5;stroke-linecap:round;stroke-linejoin:round;stroke-miterlimit:10;" d="
							M249.14,235.849c-2.685-3.335-9.045-7.839-9.045-7.839"/>
						
							<path style="fill:none;stroke:#263238;stroke-width:2.5;stroke-linecap:round;stroke-linejoin:round;stroke-miterlimit:10;" d="
							M257.542,231.475c-2.392-3.716-10.68-10.227-10.68-10.227"/>
					</g>
				</g>
				<g>
					<g>
						
							<path style="fill:#EC644E;stroke:#263238;stroke-width:2.5;stroke-linecap:round;stroke-linejoin:round;stroke-miterlimit:10;" d="
							M136.764,132.188c7.584,0.509,21.892,1.418,29.394,10.565c6.672,8.136,17.451,42.495,19.86,44.926
							c2.695,2.718,21.865,9.346,30.968,12.253c1.277,0.408-0.393,13.811-6.868,23.567c-10.68,16.092-4.419,20.659-4.419,20.659
							s-37.956-12.511-46.978-21.624c-5.781-5.839-18.608-42.223-18.608-42.223"/>
						
							<line style="fill:none;stroke:#263238;stroke-width:2.5;stroke-linecap:round;stroke-linejoin:round;stroke-miterlimit:10;" x1="137.599" y1="183.889" x2="142.771" y2="187.61"/>
					</g>
					
						<path style="fill:none;stroke:#263238;stroke-width:2.5;stroke-linecap:round;stroke-linejoin:round;stroke-miterlimit:10;" d="
						M208.378,201.831c0,0-3.329,11.865-8.348,19.486c-7.126,10.821-4.712,19.184-4.712,19.184"/>
					<path style="fill:#263238;" d="M205.703,244.875c2.225,1.188,3.138-7.474,3.138-7.474l-4.673-1.116
						C204.167,236.284,203.025,243.445,205.703,244.875z"/>
				</g>
			</g>
			<g>
				<g>
					
						<path style="fill:#FCD8C3;stroke:#263238;stroke-width:2.5;stroke-linecap:round;stroke-linejoin:round;stroke-miterlimit:10;" d="
						M71.3,185.135c8.843-3.788,35.866,6.829,35.866,6.829s23.106,5.83,22.798,9.072c-0.309,3.254,0.858,12.931-4.275,16.371
						c-5.135,3.454-18.686,4.288-18.686,4.288s-37.373,2.865-48.858-1.628C49.884,216.835,62.398,188.949,71.3,185.135z"/>
					<g>
						
							<path style="fill:#FFFFFF;stroke:#263238;stroke-width:2.5;stroke-linecap:round;stroke-linejoin:round;stroke-miterlimit:10;" d="
							M118.865,217.419l-8.106,61.125c0,0-11.479-9.889-8.59-31.673c1.574-11.872,4.127-31.12,4.127-31.12L118.865,217.419z"/>
						
							<path style="fill:none;stroke:#263238;stroke-width:2.5;stroke-linecap:round;stroke-linejoin:round;stroke-miterlimit:10;" d="
							M108.352,263.487c-1.391-4.788-2.131-10.938-1.123-18.534c1.023-7.716,2.46-18.549,3.34-25.187"/>
						
							<rect x="115.511" y="184.677" transform="matrix(0.9913 0.1315 -0.1315 0.9913 27.441 -13.8035)" style="fill:#263238;stroke:#263238;stroke-width:2.5;stroke-linecap:round;stroke-linejoin:round;stroke-miterlimit:10;" width="5.516" height="32.52"/>
					</g>
					
						<path style="fill:none;stroke:#263238;stroke-width:2.5;stroke-linecap:round;stroke-linejoin:round;stroke-miterlimit:10;" d="
						M106.535,209.873c0,0,5.106-0.958,7.701-7.66c0.926-2.392,0.78-5.178,0.78-5.178"/>
					
						<path style="fill:#FCD8C3;stroke:#263238;stroke-width:2.5;stroke-linecap:round;stroke-linejoin:round;stroke-miterlimit:10;" d="
						M94.822,193.316c6.116-3.76,12.508-3.906,18.208-9.641c4.041-4.066,7.942-2.694,5.715,3.167
						c-1.575,4.144-5.439,8.983-5.439,8.983"/>
					
						<path style="fill:#FCD8C3;stroke:#263238;stroke-width:2.5;stroke-linecap:round;stroke-linejoin:round;stroke-miterlimit:10;" d="
						M130.59,203.118c3.34-1.01,6.949-2.959,5.126-6.75c-1.823-3.792-13.654-4.046-16.246-3.685
						c-3.397,0.473-3.729,4.563,1.576,6.296c4.825,1.576,6.424,2.079,6.424,2.079"/>
					
						<path style="fill:#FCD8C3;stroke:#263238;stroke-width:2.5;stroke-linecap:round;stroke-linejoin:round;stroke-miterlimit:10;" d="
						M129.634,212.311c3.844-0.269,8.207-1.482,7.174-6.011c-1.033-4.529-13.709-7.703-16.587-7.95
						c-3.774-0.324-5.134,3.999,0.153,7.165c4.808,2.88,6.407,3.813,6.407,3.813"/>
					
						<path style="fill:#FCD8C3;stroke:#263238;stroke-width:2.5;stroke-linecap:round;stroke-linejoin:round;stroke-miterlimit:10;" d="
						M119.521,219.796c7.135-1.568,13.096-2.062,12.509-6.459c-0.586-4.397-12.5-8.574-15.079-8.74
						c-3.38-0.217-4.937,4.042-0.409,6.996c4.118,2.687,4.316,2.803,4.316,2.803"/>
				</g>
				<g>
					<g>
						<path style="fill:#EC644E;" d="M63.879,184.44c10.306-4.124,22.294-3.142,26.648-2.876c8.045,0.49,7.177,5.994,7.177,5.994
							s-2.075-1.782-4.682,0.293c-2.607,2.075-18.797,14.75-23.421,20.667c-4.623,5.917-7.597,15.046-5.248,18.166
							c1.77,2.35,4.666,0.707,4.666,0.707s-4.774,4.19-9.419,1.834c-2.91-1.476-3.044-2.711-6.492-4.43
							c-3.447-1.719-14.763-10.677-15.651-24.71"/>
						<path style="fill:#FFFFFF;" d="M53.104,224.792c3.45,1.717,3.585,2.954,6.495,4.43c4.474,2.277,9.08-1.536,9.4-1.809
							c-0.292,0.146-2.965,1.495-4.645-0.726c-0.025-0.039-0.046-0.067-0.071-0.105c-2.734-1.441-2.967-2.692-6.375-4.388
							c-3.507-1.745-14.87-10.666-15.883-24.852l-4.568,2.738C38.351,214.117,49.665,223.071,53.104,224.792z"/>
						
							<path style="fill:none;stroke:#263238;stroke-width:2.5;stroke-linecap:round;stroke-linejoin:round;stroke-miterlimit:10;" d="
							M63.879,184.44c10.306-4.124,22.294-3.142,26.648-2.876c8.045,0.49,7.177,5.994,7.177,5.994s-2.075-1.782-4.682,0.293
							c-2.607,2.075-18.797,14.75-23.421,20.667c-4.623,5.917-7.597,15.046-5.248,18.166c1.77,2.35,4.666,0.707,4.666,0.707
							s-4.774,4.19-9.419,1.834c-2.91-1.476-3.044-2.711-6.492-4.43c-3.447-1.719-14.969-11.077-15.857-25.109"/>
					</g>
					
						<path style="fill:none;stroke:#263238;stroke-width:2.5;stroke-linecap:round;stroke-linejoin:round;stroke-miterlimit:10;" d="
						M82.175,186.698c0,0-30.349,19.049-26.371,34.047"/>
					<path style="fill:#263238;" d="M63.897,221.708l10.203,1.775c0,0-2.494,5.912-7.143,5.656
						C62.308,228.882,63.897,221.708,63.897,221.708z"/>
				</g>
				<g>
					<g>
						
							<path style="fill:#FFFFFF;stroke:#FFFFFF;stroke-width:2.5;stroke-linecap:round;stroke-linejoin:round;stroke-miterlimit:10;" d="
							M97.731,266.014L97.731,266.014c0.209,1.523,1.406,2.721,2.929,2.93l0,0l0,0c-1.523,0.209-2.721,1.406-2.929,2.93l0,0l0,0
							c-0.209-1.523-1.406-2.721-2.93-2.93l0,0l0,0C96.325,268.735,97.522,267.537,97.731,266.014L97.731,266.014z"/>
					</g>
					<g>
						
							<path style="fill:#FFFFFF;stroke:#FFFFFF;stroke-width:2.5;stroke-linecap:round;stroke-linejoin:round;stroke-miterlimit:10;" d="
							M123.994,240.326L123.994,240.326c0.209,1.523,1.406,2.721,2.929,2.93l0,0l0,0c-1.523,0.209-2.721,1.406-2.929,2.93l0,0l0,0
							c-0.209-1.523-1.407-2.721-2.93-2.93l0,0l0,0C122.587,243.047,123.785,241.849,123.994,240.326L123.994,240.326z"/>
					</g>
				</g>
			</g>
			<path style="fill:#263238;" d="M116.885,125.064c7.083,9.719-1.459,16.219-6.125,16.919c-6.028,0.903-8.26,3.241-8.304,4.979
				c-0.153,6.078,12.498,14.291,3.179,24.92c-11.426,13.031-31.171-1.021-28.528-13.203c2.643-12.182,15.702-11.235,18.749-15.38
				c3.047-4.145-5.033-8.662,0.604-17.914C98.928,121.337,110.2,115.891,116.885,125.064z"/>
		</g>
	</g>
</g>
</svg>
